<svg xmlns="http://www.w3.org/2000/svg" xmlns:xlink="http://www.w3.org/1999/xlink" viewBox="0 0 117.01 143.47"><defs><style>.a{fill:url(#a)}.b{fill:#525266;opacity:.3}.c,.f,.g,.h,.i,.j{fill:#fff}.c{opacity:.1}.d{opacity:.2;fill:url(#b)}.e{opacity:.03}.f{opacity:.21}.g{opacity:.32}.h{opacity:.56}.i{opacity:.66}.j{opacity:.83}</style><linearGradient id="a" x1="58.01" x2="58.01" y1="-34.4" y2="116.88" gradientUnits="userSpaceOnUse"><stop offset="0" stop-color="#3c3c59"/><stop offset=".13" stop-color="#3f415e"/><stop offset=".29" stop-color="#4a4e6e"/><stop offset=".47" stop-color="#5a6587"/><stop offset=".65" stop-color="#7184ab"/><stop offset=".85" stop-color="#8facd8"/><stop offset="1" stop-color="#a8ceff"/></linearGradient><linearGradient id="b" x1="2.14" x2="114.88" y1="137.22" y2="137.22" gradientUnits="userSpaceOnUse"><stop offset=".01"/><stop offset="1" stop-opacity="0"/></linearGradient></defs><title>icon_stacks</title><polygon points="58.01 2.13 111.01 32.72 111.01 93.89 58.01 124.47 5.01 93.89 5.01 32.72 58.01 2.13" class="a"/><polygon points="110.67 93.89 57.7 124.47 4.72 93.89 57.7 63.45 110.67 93.89" class="b"/><polygon points="58.01 2.13 5.01 32.72 5.01 93.89 58.01 63.45 58.01 2.13" class="c"/><ellipse cx="58.51" cy="137.22" class="d" rx="56.37" ry="4.12"/><polygon points="91.97 91.34 57.52 111.7 23.07 91.34 57.52 70.98 91.97 91.34" class="e"/><polygon points="91.97 80.16 57.52 100.52 23.07 80.16 57.52 59.8 91.97 80.16" class="f"/><polygon points="91.97 71.29 57.52 91.65 23.07 71.29 57.52 50.93 91.97 71.29" class="g"/><polygon points="91.97 62.42 57.52 82.78 23.07 62.42 57.52 42.06 91.97 62.42" class="h"/><polygon points="91.97 53.55 57.52 73.91 23.07 53.55 57.52 33.19 91.97 53.55" class="i"/><polygon points="91.97 44.68 57.52 65.04 23.07 44.68 57.52 24.32 91.97 44.68" class="j"/></svg>