<svg xmlns="http://www.w3.org/2000/svg" xmlns:xlink="http://www.w3.org/1999/xlink" viewBox="0 0 116 144.62"><defs><style>.a{fill:url(#a)}.b{fill:#525266;opacity:.3}.c{fill:#fff;opacity:.1}.d{opacity:.09}.e{opacity:.15}.f{opacity:.06}.g{opacity:.2;fill:url(#b)}.h{fill:url(#c)}.i{fill:url(#d)}.j{fill:url(#e)}.k{fill:url(#f)}.l,.m,.n,.o,.p{fill:none;stroke:#a8ceff;stroke-linecap:round;stroke-miterlimit:10}.m{stroke-dasharray:.52 2.09}.n{stroke-dasharray:.51 2.06}.o{stroke-dasharray:.5 2}.p{stroke-dasharray:.53 2.13}</style><linearGradient id="a" x1="57.34" x2="57.34" y1="-35.33" y2="118.23" gradientUnits="userSpaceOnUse"><stop offset="0" stop-color="#3c3c59"/><stop offset=".13" stop-color="#3f415e"/><stop offset=".29" stop-color="#4a4e6e"/><stop offset=".47" stop-color="#5a6587"/><stop offset=".65" stop-color="#7184ab"/><stop offset=".85" stop-color="#8facd8"/><stop offset="1" stop-color="#a8ceff"/></linearGradient><linearGradient id="b" x1=".78" x2="115.22" y1="138.68" y2="138.68" gradientUnits="userSpaceOnUse"><stop offset=".01"/><stop offset="1" stop-opacity="0"/></linearGradient><radialGradient id="c" cx="-1899.28" cy="2357.68" r="41.37" gradientTransform="translate(-1820.04 2397.61) rotate(180)" gradientUnits="userSpaceOnUse"><stop offset="0" stop-color="#faf8fa"/><stop offset=".17" stop-color="#faf8fa" stop-opacity=".86"/><stop offset=".44" stop-color="#faf8fa" stop-opacity=".66"/><stop offset=".68" stop-color="#faf8fa" stop-opacity=".52"/><stop offset=".88" stop-color="#faf8fa" stop-opacity=".43"/><stop offset="1" stop-color="#faf8fa" stop-opacity=".4"/></radialGradient><radialGradient id="d" cx="-1868.88" cy="2320.21" r="22.12" xlink:href="#c"/><radialGradient id="e" cx="-1879.46" cy="2301.53" r="15.26" xlink:href="#c"/><radialGradient id="f" cx="-1914.94" cy="2317.65" r="34.13" xlink:href="#c"/></defs><title>Koding_website_homepage_5</title><polygon points="57.34 1.75 110.84 32.8 110.84 94.89 57.34 125.94 3.84 94.89 3.84 32.8 57.34 1.75" class="a"/><polygon points="111.21 94.89 57.44 125.94 3.66 94.89 57.44 64 111.21 94.89" class="b"/><polygon points="57.84 1.75 3.84 32.8 3.84 94.89 57.84 64 57.84 1.75" class="c"/><ellipse cx="77.47" cy="91.9" class="d" rx="13.75" ry="8.53"/><ellipse cx="51.68" cy="102.87" class="e" rx="7.43" ry="3.36"/><ellipse cx="36.75" cy="87.21" class="d" rx="9.18" ry="5.69"/><ellipse cx="58.68" cy="74.68" class="f" rx="11.28" ry="7"/><ellipse cx="58" cy="138.68" class="g" rx="57.22" ry="4.18"/><circle cx="58.11" cy="39.23" r="18.88" class="h"/><circle cx="37.53" cy="77.03" r="10.09" class="i"/><circle cx="51.63" cy="95.82" r="6.96" class="j"/><circle cx="77.47" cy="79.37" r="15.57" class="k"/><line x1="44.76" x2="45" y1="77.72" y2="77.75" class="l"/><line x1="47.08" x2="59" y1="77.98" y2="79.28" class="m"/><line x1="60.04" x2="60.28" y1="79.39" y2="79.42" class="l"/><line x1="42.02" x2="42.12" y1="66.37" y2="66.14" class="l"/><line x1="43.01" x2="50.34" y1="64.29" y2="48.99" class="n"/><line x1="50.78" x2="50.89" y1="48.06" y2="47.84" class="l"/><line x1="67.07" x2="74.81" y1="56.97" y2="72.37" class="o"/><line x1="53.37" x2="53.6" y1="95.73" y2="95.64" class="l"/><line x1="55.59" x2="64.54" y1="94.87" y2="91.38" class="p"/><line x1="65.53" x2="65.77" y1="90.99" y2="90.9" class="l"/></svg>