<svg xmlns="http://www.w3.org/2000/svg" xmlns:xlink="http://www.w3.org/1999/xlink" viewBox="0 0 1398.93 325.54"><defs><style>.a{fill:none}.b{clip-path:url(#a)}.c{fill:#fff}.d,.e{opacity:.22}.d{fill:url(#b)}.e{fill:url(#c)}</style><clipPath id="a" transform="translate(-1694.62 -478.47)"><path d="M3094,596c-1.5,0-5.9,2.18-8.48,3.1-46.9,16.75-15-2.6-19.52-14.1-11-28-305.07,101.32-231,39,119-100.16-668,180-1140.37,180H3093Z" class="a"/></clipPath><linearGradient id="b" x1="1158.88" x2="1095.45" y1="93.43" y2="131.02" gradientUnits="userSpaceOnUse"><stop offset="0"/><stop offset=".87" stop-opacity=".35"/><stop offset="1" stop-opacity="0"/></linearGradient><linearGradient id="c" x1="1398.66" x2="1325.68" y1="53.57" y2="96.82" xlink:href="#b"/></defs><title>hero-negative</title><g class="b"><rect width="1398.93" height="223.03" y="102.51" class="c"/><polygon points="1128.38 160.61 1090.38 91.54 1146.76 38 1183.38 141.54 1128.38 160.61" class="d"/><polygon points="1365.38 126.54 1331.38 76.54 1390.76 0 1388.65 117.76 1365.38 126.54" class="e"/></g></svg>